<svg xmlns="http://www.w3.org/2000/svg" viewBox="0 0 256 256">
  <rect width="256" height="256" fill="#1e88e5"/>
  <circle cx="80" cy="100" r="18" fill="#ffffff"/>
  <circle cx="80" cy="100" r="12" fill="#1e88e5"/>
  <path d="M80 118 Q60 140 60 170 L60 200 Q60 210 70 210 L90 210 Q100 210 100 200 L100 170 Q100 140 80 118 Z" fill="#ffffff"/>
  <circle cx="60" cy="200" r="8" fill="#ffffff"/>
  <circle cx="100" cy="200" r="8" fill="#ffffff"/>
  <rect x="130" y="80" width="80" height="100" rx="8" fill="#ffffff"/>
  <path d="M145 110 L165 130 L195 100" fill="none" stroke="#4caf50" stroke-width="6" stroke-linecap="round" stroke-linejoin="round"/>
  <rect x="145" y="145" width="50" height="8" rx="4" fill="#4caf50"/>
  <rect x="145" y="160" width="35" height="8" rx="4" fill="#4caf50"/>
  <rect x="145" y="175" width="45" height="8" rx="4" fill="#4caf50"/>
</svg>